<svg version="1.1" id="Layer_1" xmlns="http://www.w3.org/2000/svg" xmlns:xlink="http://www.w3.org/1999/xlink" x="0px" y="0px"
     width="100%" viewBox="0 0 1248 832" enable-background="new 0 0 1248 832" xml:space="preserve">
    <text fill="#000000" opacity="1.000000" stroke="none" x="100" y="320" textLength="550" font-size="150" font-family="Segoe UI,Arial,sans-serif" font-weight="600">FIXT.1.1</text>
    <path fill="#000000" opacity="1.000000" stroke="none"
          d="
M1249.000000,772.531372
	C1243.173462,776.659180 1237.389038,780.387451 1231.511475,783.962769
	C1219.839233,791.063232 1208.231689,798.282471 1196.373657,805.061096
	C1188.125244,809.776306 1179.219971,811.610046 1169.705688,809.041565
	C1163.895752,807.473083 1160.124146,803.458679 1157.329224,798.646240
	C1147.563965,781.832336 1138.152466,764.813293 1128.440674,747.967773
	C1120.894287,734.878052 1113.052002,721.959351 1105.428467,708.913635
	C1094.746094,690.633362 1084.214355,672.264832 1073.488037,654.010498
	C1063.307739,636.685242 1052.957520,619.459778 1042.686523,602.187622
	C1036.442749,591.687683 1030.414185,581.052490 1023.910156,570.716431
	C1017.376892,560.333801 1021.911926,551.795044 1032.323242,546.932190
	C1035.451904,545.470886 1038.367065,543.552368 1041.570801,541.735046
	C1034.380981,529.338013 1027.614380,517.670898 1020.895081,506.085083
	C1009.274231,510.485931 998.724854,514.965088 987.862793,518.477478
	C972.795410,523.349731 957.480896,527.376648 941.490356,528.022644
	C927.638672,528.582153 913.793335,529.849731 899.947876,529.812927
	C890.883362,529.788757 881.731567,528.503052 872.784485,526.872864
	C860.923645,524.711731 849.001953,522.387207 837.500061,518.851990
	C809.682129,510.301880 783.505981,498.044617 759.873474,480.898499
	C751.305054,474.681824 743.439087,467.496826 735.253479,460.752594
	C721.489624,449.412445 710.275757,435.639099 700.132874,421.233856
	C691.406616,408.840485 684.423767,395.190552 677.023682,381.899292
	C666.535645,363.061493 661.239746,342.338776 656.396240,321.569977
	C654.447754,313.214935 653.967529,304.502960 653.034851,295.929932
	C652.202759,288.281067 651.070129,280.594055 651.144592,272.934296
	C651.251465,261.938293 651.813904,250.888275 653.146484,239.979111
	C654.475037,229.103119 656.432800,218.229767 659.134705,207.614914
	C662.368042,194.912476 665.971130,182.210693 670.683289,169.998367
	C679.462280,147.246460 691.508484,126.029053 706.799011,107.120300
	C717.529968,93.850037 730.137268,82.022057 742.486938,70.153900
	C760.046265,53.279156 781.099182,41.450588 802.912048,31.124144
	C819.149597,23.437132 836.166565,17.862091 853.779541,13.793224
	C871.276428,9.751184 888.829346,7.711699 906.706055,8.023438
	C918.787659,8.234118 930.960999,7.825599 942.924133,9.184047
	C965.060913,11.697753 986.745056,16.857006 1007.198486,25.832197
	C1021.725830,32.206921 1036.105957,39.167183 1049.750732,47.222820
	C1060.426270,53.525452 1070.154663,61.567432 1079.774170,69.480446
	C1087.299438,75.670746 1094.214966,82.650291 1101.043823,89.629005
	C1114.851929,103.740097 1126.812988,119.395699 1136.099487,136.773575
	C1143.947510,151.459305 1151.394043,166.516586 1157.199097,182.087662
	C1161.876709,194.634598 1163.797607,208.204239 1167.012085,221.302826
	C1171.980591,241.549301 1171.522461,262.194214 1170.786865,282.727875
	C1170.358643,294.686218 1167.792969,306.567017 1166.207642,318.485199
	C1164.179565,333.731049 1159.532471,348.256409 1153.981689,362.514191
	C1145.177002,385.129730 1133.826538,406.435760 1118.781006,425.468994
	C1108.916260,437.948242 1097.933350,449.567871 1087.091431,461.238190
	C1083.006226,465.635437 1078.191284,469.520081 1073.179688,472.839233
	C1069.176514,475.490509 1068.531372,477.532135 1071.105347,481.670563
	C1076.950439,491.068268 1082.303101,500.772522 1087.843506,510.359375
	C1089.266113,512.821045 1090.432129,514.000427 1093.299316,511.428040
	C1096.248535,508.782257 1099.863403,506.728027 1103.464722,504.990967
	C1110.911255,501.399231 1115.758179,501.575287 1120.918579,509.922516
	C1128.186890,521.679443 1135.024048,533.704895 1141.957031,545.666870
	C1150.485962,560.382263 1158.919312,575.152954 1167.402100,589.895142
	C1175.098267,603.270325 1182.789185,616.648499 1190.511230,630.008789
	C1202.899170,651.441711 1215.357788,672.834167 1227.694336,694.296753
	C1234.658569,706.413208 1241.438354,718.635803 1248.650635,730.905273
	C1249.000000,744.687561 1249.000000,758.375122 1249.000000,772.531372
M956.497925,517.000000
	C968.039062,514.138123 979.957520,512.288635 991.027771,508.163177
	C1005.526917,502.759918 1019.610046,496.056244 1033.409058,489.005585
	C1050.360596,480.344055 1065.532837,468.884888 1079.452148,455.929688
	C1091.752441,444.481293 1103.130127,432.161835 1113.075806,418.520416
	C1125.945190,400.868744 1136.363770,381.901184 1144.649658,361.745636
	C1154.753662,337.167725 1160.100342,311.345276 1161.690918,285.016418
	C1162.681763,268.615662 1160.925171,252.018631 1159.938232,235.537445
	C1158.997070,219.818329 1154.783081,204.714294 1150.001587,189.786957
	C1141.939941,164.619461 1129.743652,141.488037 1114.402344,120.095192
	C1107.371094,110.290352 1099.891724,100.530884 1091.167603,92.282303
	C1078.960571,80.740440 1065.894165,69.944527 1052.264404,60.121147
	C1041.138306,52.102238 1028.988892,45.289131 1016.678955,39.178844
	C999.830811,30.815929 981.947876,24.950268 963.338318,21.769644
	C950.544556,19.583010 937.712891,16.929600 924.807800,16.279663
	C912.370972,15.653305 899.785645,16.968914 887.324463,18.088232
	C871.548584,19.505297 856.045654,22.199444 840.720825,26.764383
	C819.360352,33.127209 799.127686,41.890263 780.320496,53.493626
	C753.915405,69.784615 731.089050,90.269333 712.199097,115.151657
	C693.095947,140.314804 679.596008,168.107620 670.328674,198.176666
	C663.265808,221.093018 660.936890,244.706741 660.230408,268.436340
	C659.891724,279.813507 661.869873,291.276489 663.027466,302.677368
	C664.712341,319.270264 668.473511,335.477020 673.789124,351.226807
	C680.744446,371.834961 689.966919,391.507843 702.825500,409.112030
	C712.133301,421.854889 721.836609,434.483856 732.755554,445.823181
	C742.715820,456.166870 753.903381,465.643616 765.727905,473.793457
	C778.988892,482.933319 793.455078,490.369171 807.634094,498.111969
	C813.914124,501.541260 820.660828,504.225525 827.408203,506.658783
	C834.317444,509.150421 841.418884,511.201508 848.561035,512.929321
	C855.769409,514.673035 863.091919,516.055542 870.434204,517.110535
	C883.151184,518.937866 895.937622,521.786804 908.666199,521.643982
	C924.327637,521.468323 939.959656,518.666748 956.497925,517.000000
M1197.548706,668.039185
	C1197.036865,667.402100 1196.427979,666.820435 1196.027344,666.119751
	C1186.933228,650.219543 1177.960205,634.249207 1168.763672,618.408630
	C1154.634766,594.072388 1140.361572,569.820068 1126.136597,545.539673
	C1120.703491,536.265930 1115.234863,527.013062 1109.531738,517.324951
	C1084.146362,532.428711 1059.252075,547.240295 1034.503052,561.965515
	C1036.511475,566.044250 1037.735840,569.044067 1039.381836,571.791321
	C1051.202881,591.520569 1063.251465,611.114563 1074.954102,630.913330
	C1090.415771,657.071899 1105.671021,683.352966 1120.934570,709.628052
	C1136.673950,736.722046 1152.313599,763.873840 1168.004883,790.995667
	C1171.029907,796.224121 1175.711304,797.910278 1181.645752,796.056335
	C1184.216064,795.253296 1186.838013,794.615356 1189.296387,793.940796
	C1190.426758,796.597473 1191.429565,798.954468 1192.432495,801.311462
	C1194.337158,799.743958 1195.063843,798.382629 1195.519287,796.935913
	C1197.682495,790.065125 1202.226196,785.421021 1208.429443,781.896545
	C1217.354736,776.825378 1226.358154,771.784119 1234.740723,765.894043
	C1243.974243,759.405884 1247.231445,754.629639 1241.007568,743.952332
	C1233.407715,730.914490 1225.832642,717.861694 1218.341675,704.761047
	C1211.485352,692.770447 1204.755249,680.707703 1197.548706,668.039185
M1063.358765,528.963257
	C1067.785522,526.328308 1072.090210,523.449158 1076.684814,521.149658
	C1079.456909,519.762268 1079.352905,518.426575 1078.040161,516.189636
	C1074.545166,510.234192 1071.160156,504.214233 1067.720215,498.226440
	C1065.103027,493.671082 1062.468750,489.125641 1059.879272,484.640106
	C1051.020874,489.596741 1042.959106,494.151642 1034.850464,498.621490
	C1031.884155,500.256714 1031.265015,502.273590 1033.008057,505.242157
	C1038.383301,514.396790 1043.772827,523.546753 1048.907959,532.836121
	C1050.348267,535.441406 1052.029297,535.530457 1054.083862,534.375916
	C1057.004517,532.734863 1059.763184,530.805359 1063.358765,528.963257
z"/>
    <path fill="#000000" opacity="1.000000" stroke="none"
          d="
M1.000001,253.466125
	C5.048481,249.786819 9.258532,246.755295 13.114530,243.325699
	C23.812489,233.810715 34.346840,224.112061 44.976032,214.519424
	C58.283714,202.509521 71.636345,190.549438 84.942169,178.537506
	C98.988251,165.857254 113.011032,153.151154 127.022461,140.432617
	C129.836838,137.877914 132.178101,137.133469 135.211914,140.556488
	C140.022980,145.984772 145.416138,150.894043 150.351883,156.218643
	C151.004486,156.922668 150.985031,159.386414 150.319153,160.006042
	C139.715439,169.873337 128.942780,179.558823 118.237099,189.316956
	C113.480667,193.652405 108.788300,198.058136 104.065323,202.430328
	C95.106499,210.723755 86.236267,219.115601 77.164406,227.283493
	C65.820770,237.496796 54.379665,247.605057 42.829956,257.584259
	C39.479092,260.479492 39.718884,262.279724 42.786819,265.434387
	C68.384720,291.756042 93.781639,318.273193 119.232063,344.738190
	C126.695404,352.499084 134.012131,360.406464 141.646423,367.994843
	C144.783508,371.113098 144.584030,373.332550 141.445770,376.128357
	C135.281326,381.620026 129.283142,387.298309 122.658592,393.414093
	C119.840103,390.185944 117.065445,386.805939 114.077492,383.626343
	C107.094803,376.195770 100.070183,368.802460 92.953773,361.500092
	C76.949936,345.078064 60.873253,328.727051 44.839050,312.334595
	C30.438051,297.611847 16.054165,282.872345 1.331370,268.070099
	C1.000000,263.310730 1.000000,258.621490 1.000001,253.466125
z"/>
    <path fill="#000000" opacity="1.000000" stroke="none"
          d="
M982.516724,539.269409
	C972.955444,539.036011 963.800415,539.036011 954.538574,539.036011
	C969.591064,535.209167 984.486023,531.422363 999.624878,527.573608
	C999.624878,622.916382 999.624878,718.731567 999.624878,815.000000
	C997.886353,815.000000 996.105042,815.000000 994.323730,815.000000
	C885.505737,815.000000 776.687561,814.890259 667.869690,815.023560
	C462.479340,815.275146 257.089142,815.667053 51.698845,815.998474
	C45.007820,816.009277 45.001083,815.998779 45.000999,809.030884
	C44.999611,689.714355 45.008678,570.397827 44.963367,451.081329
	C44.961807,446.972565 44.688263,443.994232 50.714432,445.771606
	C54.693382,446.945190 59.297901,445.999573 63.622337,445.999695
	C87.952248,446.000305 112.282692,446.093994 136.611801,445.954346
	C146.521088,445.897461 156.428070,445.026672 166.335068,445.046387
	C299.069000,445.310455 431.802673,445.776733 564.536682,445.938599
	C609.282410,445.993164 654.029480,445.368286 698.774719,444.937378
	C702.584534,444.900696 704.646301,446.380615 707.251587,449.219238
	C715.777039,458.508270 724.411194,467.894135 734.168396,475.806244
	C746.309570,485.651550 759.645447,494.018280 772.345154,503.190033
	C773.372009,503.931641 773.889282,505.947845 773.927612,507.390747
	C774.095520,513.718689 774.147461,520.058533 773.940613,526.384216
	C773.829590,529.780151 774.826721,531.100525 778.432068,531.115356
	C781.996887,531.130005 784.081604,530.386292 784.018555,526.412476
	C783.939331,521.423767 783.999451,516.432861 783.999451,510.522278
	C810.231201,522.740601 836.419556,533.537476 864.533752,539.000000
	C859.750305,539.000000 854.966919,539.000000 850.183472,539.000000
	C831.352783,539.000000 812.521790,539.057922 793.691772,538.945312
	C790.398560,538.925598 788.883667,539.656494 788.928467,543.360291
	C789.103821,557.856079 789.023621,572.355408 788.982910,586.853210
	C788.973206,590.324402 789.894714,592.097961 794.021973,592.087708
	C847.347412,591.955261 900.673584,592.073853 953.999023,591.933533
	C963.868958,591.907532 973.736633,591.017090 984.503296,590.480835
	C983.978577,573.553040 983.450806,556.527954 982.516724,539.269409
M269.563934,666.000000
	C351.912323,666.000000 434.260681,666.000000 517.000000,666.000000
	C517.000000,644.821411 516.881592,625.037903 517.092896,605.257935
	C517.139038,600.941528 515.300659,599.825684 511.589569,599.992920
	C503.673615,600.349670 495.756104,600.948425 487.838776,600.956238
	C413.192566,601.029907 338.546295,601.000000 263.900024,601.000122
	C256.998993,601.000122 256.883667,601.003357 257.043640,607.646179
	C257.138123,611.569153 257.912781,615.479065 257.954071,619.399353
	C258.080414,631.394714 258.100739,643.393433 257.972687,655.388733
	C257.834961,668.292236 259.842438,666.027039 269.563934,666.000000
M525.006958,661.384827
	C525.330200,664.484863 527.128235,665.137085 530.052673,665.061707
	C547.791504,664.604614 565.534607,664.078918 583.277161,664.045837
	C646.239624,663.928284 709.202454,664.000000 772.165100,664.000000
	C782.037170,664.000000 782.015137,664.000000 782.004883,654.552612
	C781.987244,638.228943 781.860779,621.903320 782.093567,605.583008
	C782.155212,601.263428 781.025085,599.880859 776.535156,599.901123
	C738.225281,600.073792 699.914307,600.000000 661.603699,600.000000
	C618.129456,600.000000 574.655212,600.027466 531.181091,599.953674
	C527.226501,599.946960 524.806824,600.836304 524.955872,605.418579
	C525.141174,611.113281 524.896484,616.820923 525.027161,622.518616
	C525.281555,633.611267 525.710083,644.699829 525.952026,655.792603
	C525.985901,657.349670 525.373352,658.920898 525.006958,661.384827
M559.500000,736.000061
	C581.907715,735.666687 604.314697,735.112610 626.723206,735.045288
	C675.531189,734.898621 724.339844,735.000000 773.148254,735.000000
	C783.032227,735.000000 783.014099,735.000000 783.004150,725.495239
	C782.988525,710.502869 783.000000,695.510559 783.000000,680.518188
	C783.000000,671.276306 783.000732,671.285706 773.630371,671.987549
	C772.470764,672.074402 771.299072,672.000000 770.132996,672.000000
	C691.006775,672.000000 611.880615,672.000061 532.754395,672.000061
	C531.588318,672.000061 530.108154,671.548462 529.321594,672.094971
	C527.686584,673.230957 525.207703,674.877136 525.184814,676.346375
	C524.902771,694.499390 524.942749,712.658630 525.054871,730.815369
	C525.075012,734.076721 526.535889,736.171936 530.516113,736.073608
	C539.838989,735.843384 549.171448,736.000000 559.500000,736.000061
M313.500000,736.000000
	C379.463226,736.000000 445.426483,735.963196 511.389496,736.085388
	C515.658936,736.093262 517.243347,735.108826 517.104187,730.560730
	C516.778259,719.909973 517.000000,709.242432 517.000000,698.581726
	C517.000000,690.146118 517.000000,681.710571 517.000000,673.324219
	C495.931213,671.640930 268.572601,672.799194 260.000000,674.442139
	C260.000000,693.388489 260.105042,712.184998 259.915466,730.978638
	C259.875336,734.957092 261.055817,736.136292 265.027557,736.084656
	C280.849396,735.878967 296.675476,736.000000 313.500000,736.000000
M680.500000,799.000000
	C712.324890,799.000000 744.149841,799.000000 775.974731,799.000000
	C785.029785,799.000000 785.019104,799.001221 784.016785,790.126831
	C783.905273,789.139587 784.000061,788.129089 784.000061,787.129333
	C783.999939,774.299377 784.000488,761.469482 783.999817,748.639526
	C783.999512,742.022461 783.996948,741.917725 777.473267,742.020264
	C760.057739,742.294128 742.644226,742.923096 725.229126,742.954163
	C660.746399,743.069275 596.263306,742.998962 531.780396,743.001709
	C525.400024,743.001953 524.900940,743.405334 525.022827,749.819275
	C525.280945,763.402954 525.677612,776.984009 525.990845,790.566711
	C526.054199,793.315796 526.000000,796.067505 526.000000,799.000000
	C577.546021,799.000000 628.523010,799.000000 680.500000,799.000000
M472.500000,744.000000
	C450.680481,744.000000 428.860962,744.000000 407.041443,744.000000
	C360.237701,744.000000 313.433960,743.998352 266.630219,744.002014
	C260.680206,744.002502 258.960388,746.141052 260.006653,751.969177
	C260.465149,754.523010 260.932404,757.118958 260.955780,759.699768
	C261.058319,771.024963 261.055145,782.352112 260.969177,793.677612
	C260.940430,797.465271 262.122498,799.091736 266.341644,799.085815
	C348.622803,798.970154 430.904175,799.001343 513.185486,798.987305
	C514.439819,798.987061 515.694153,798.795532 516.999939,798.689087
	C516.999939,781.307495 516.968872,764.322083 517.023804,747.336914
	C517.036133,743.525940 515.478271,742.431213 511.887177,743.576111
	C510.512299,744.014343 508.953766,743.979614 507.478485,743.983521
	C496.152374,744.013550 484.826172,744.000000 472.500000,744.000000
M366.500000,593.000000
	C416.575684,593.000000 466.651337,593.000000 516.746582,593.000000
	C516.746582,575.081482 516.746582,557.682922 516.746582,540.340698
	C516.194092,540.188477 515.891113,540.031921 515.588074,540.031860
	C430.468964,540.014038 345.349792,540.027710 260.230774,539.933289
	C256.393280,539.929016 255.873337,541.663147 255.962677,544.817932
	C256.380157,559.559875 256.662079,574.305603 257.008270,589.049622
	C257.037994,590.316284 257.183868,591.580200 257.287018,593.000000
	C293.574188,593.000000 329.537109,593.000000 366.500000,593.000000
M712.500000,592.000000
	C732.495483,592.000000 752.491089,592.030579 772.486328,591.966248
	C775.403748,591.956848 778.653992,592.148682 781.069031,590.914429
	C782.012939,590.432068 781.015381,586.275085 781.010742,583.791565
	C780.987427,571.294373 781.000122,558.797241 781.000000,546.300049
	C780.999939,538.438477 781.006836,538.477661 772.895325,539.942322
	C771.441833,540.204712 769.902710,539.999146 768.403137,539.999207
	C689.087891,540.000183 609.772522,540.030579 530.457458,539.912964
	C526.328857,539.906860 524.923523,541.307800 524.966248,545.210571
	C525.070068,554.707214 524.999939,564.205872 525.000000,573.703674
	C525.000000,578.365662 525.092590,583.030090 524.971436,587.688965
	C524.872070,591.510254 526.156921,593.124268 530.362427,593.090088
	C553.522278,592.901550 576.684448,593.007202 599.845825,592.998169
	C626.329346,592.987854 652.813354,593.049561 679.296143,592.902588
	C690.032104,592.843018 700.765442,592.314941 712.500000,592.000000
M983.996094,600.713867
	C982.398743,600.142578 980.802063,599.074097 979.203857,599.071777
	C920.555542,598.986450 861.907104,598.983337 803.258667,599.033875
	C798.911682,599.037659 794.565002,599.525146 790.000610,599.800903
	C790.000610,620.139343 790.012207,639.779724 789.989807,659.420044
	C789.985840,662.918640 791.466553,664.252136 795.090454,664.064941
	C805.163513,663.544495 815.252075,663.064697 825.335327,663.045227
	C876.319275,662.946838 927.303833,662.934326 978.287354,663.108521
	C983.030701,663.124756 984.164673,661.719116 984.103394,657.162109
	C983.854492,638.671204 983.999878,620.175049 983.996094,600.713867
M920.500244,734.000000
	C939.996094,734.000000 959.492310,733.938965 978.987427,734.057495
	C982.415527,734.078308 984.124268,733.494690 984.082642,729.461182
	C983.893860,711.133667 983.921448,692.802551 984.067749,674.474243
	C984.096252,670.907166 982.865723,669.788208 979.421143,669.953308
	C969.677063,670.420349 959.922974,670.935425 950.171875,670.954773
	C900.682556,671.052979 851.192932,671.000000 801.703430,671.000000
	C790.973022,671.000000 790.973145,671.000000 790.999817,681.677856
	C791.001526,682.344360 791.000000,683.010925 791.000000,683.677429
	C791.000000,698.507629 790.996582,713.337769 791.001526,728.167969
	C791.003662,734.598755 791.396484,735.040771 797.768616,734.991150
	C838.346008,734.675110 878.923218,734.333313 920.500244,734.000000
M109.500496,601.000000
	C95.090843,601.333374 80.682281,601.754028 66.270714,601.933411
	C63.013397,601.974060 61.924309,603.014709 61.944546,606.275879
	C62.059284,624.762939 62.038731,643.251221 61.968147,661.738770
	C61.953655,665.535522 63.561512,667.254333 67.336594,667.003723
	C72.584183,666.655396 77.833130,666.050659 83.082146,666.043640
	C136.546768,665.972229 190.011505,666.000000 243.476227,665.999939
	C244.642120,665.999939 246.078583,666.429321 246.914124,665.903809
	C248.375641,664.984375 250.552170,663.478210 250.552139,662.217896
	C250.551682,643.981323 250.224274,625.744934 250.007965,607.508057
	C249.936325,601.467346 249.524185,601.002991 243.412537,601.002380
	C199.108444,600.997986 154.804352,601.000000 109.500496,601.000000
M155.492416,737.000000
	C187.267395,736.564514 219.042389,736.128967 250.999878,735.690979
	C250.999878,716.265259 250.931229,697.134094 251.061234,678.004395
	C251.085495,674.435974 249.423981,673.957703 246.459030,673.960327
	C186.848785,674.013367 127.238449,674.019104 67.628227,673.956909
	C63.657375,673.952759 61.932602,675.384583 61.956688,679.466309
	C62.058853,696.782654 62.055450,714.100281 61.958660,731.416687
	C61.936184,735.438538 63.047466,737.140564 67.577950,737.107605
	C96.549011,736.896545 125.522362,737.000000 155.492416,737.000000
M901.500000,742.000000
	C866.834045,742.000000 832.168030,741.996887 797.502075,742.002869
	C791.462646,742.003906 790.875183,742.503723 791.042603,748.600525
	C791.145813,752.356628 791.911987,756.098633 791.954163,759.851685
	C792.081299,771.183411 792.137512,782.520020 791.923279,793.849060
	C791.851196,797.661194 792.770203,799.093567 796.902527,799.085144
	C857.567749,798.961365 918.233398,798.949463 978.898499,799.102905
	C983.392700,799.114258 984.115295,797.447876 984.071167,793.548645
	C983.897400,778.217529 983.847229,762.880859 984.096741,747.551880
	C984.167969,743.176758 982.942261,741.865417 978.497742,741.901184
	C953.166565,742.104797 927.832825,742.000000 901.500000,742.000000
M173.500000,799.000000
	C199.584366,799.000000 225.668716,799.000000 252.000000,799.000000
	C252.000000,782.661377 251.824387,766.861267 252.106644,751.069275
	C252.191727,746.308533 250.926346,744.876099 246.022018,744.890320
	C187.393112,745.060242 128.763535,744.999512 70.134140,745.000671
	C62.660004,745.000854 62.422916,745.255432 62.988216,752.267090
	C63.068275,753.260010 62.999954,754.264893 62.999962,755.264282
	C63.000034,768.089478 63.048206,780.914978 62.962204,793.739624
	C62.943485,796.530701 63.526859,798.013916 66.786469,798.061584
	C79.040871,798.240967 91.290291,798.873108 103.544128,798.955505
	C126.528481,799.110107 149.514618,799.000000 173.500000,799.000000
M223.499969,540.000000
	C169.766724,540.000000 116.033470,540.000000 62.000000,540.000000
	C62.000000,555.778748 61.999977,571.067383 62.000008,586.355957
	C62.000027,593.999878 62.000320,594.039429 69.397346,593.993713
	C121.350006,593.672363 173.302505,593.327087 225.255173,593.006653
	C233.038269,592.958679 240.821915,593.000000 247.998322,593.000000
	C247.998322,576.079163 248.070068,559.554504 247.826447,543.034485
	C247.811234,542.004333 245.361511,540.203918 243.978653,540.137756
	C237.498367,539.827881 230.995041,540.000061 223.499969,540.000000
M254.000000,506.500000
	C254.000015,513.312256 254.225677,520.134460 253.924500,526.933350
	C253.706635,531.851440 257.441193,531.494995 260.153625,531.868774
	C263.143219,532.280640 264.084625,530.261536 264.065857,527.226440
	C263.939453,506.790497 263.895844,486.352448 264.088013,465.917511
	C264.126404,461.835266 262.732361,460.821289 258.895447,460.885498
	C255.364182,460.944550 253.858932,461.731201 253.920090,465.624725
	C254.128799,478.913635 254.000015,492.207825 254.000000,506.500000
M518.000000,471.554749
	C518.000000,469.726044 517.872742,467.886475 518.027588,466.070984
	C518.312561,462.730835 517.639221,460.897125 513.543884,460.856354
	C509.491516,460.816010 507.950623,462.104309 507.965637,466.089661
	C508.040833,486.038971 508.041168,505.988861 507.965515,525.938171
	C507.950287,529.949463 509.562714,531.164673 513.571106,531.141846
	C517.705505,531.118225 518.068054,529.201599 518.048889,525.903259
	C517.945618,508.115509 518.000000,490.326813 518.000000,471.554749
z"/>
    <path fill="#000000" opacity="1.000000" stroke="none"
          d="
M1018.302307,65.730103
	C1032.111694,72.065628 1043.750244,81.059807 1055.399170,89.975990
	C1072.077759,102.741982 1086.414673,117.890755 1098.435181,135.055847
	C1111.555176,153.791138 1122.318237,173.876907 1129.252686,195.765793
	C1133.931396,210.534119 1138.108032,225.477310 1139.000122,241.089706
	C1139.676270,252.924026 1141.060303,264.776520 1140.781738,276.589142
	C1140.537354,286.953949 1138.375854,297.269379 1137.137695,307.615723
	C1134.484131,329.789703 1126.581299,350.394318 1116.714966,370.061340
	C1110.179321,383.089081 1101.808716,395.346466 1093.116455,407.103638
	C1082.455322,421.523926 1069.940063,434.310516 1055.960327,445.792755
	C1039.212158,459.548859 1021.136902,470.991180 1001.440857,479.736755
	C985.132202,486.978241 968.175964,492.667389 950.357117,494.945709
	C937.238892,496.622986 924.047974,498.600494 910.875000,498.710205
	C900.058960,498.800323 889.246948,496.057495 878.387512,495.074890
	C863.797363,493.754700 849.804810,489.857910 836.236450,484.843628
	C812.490845,476.068237 790.242310,464.515106 770.065613,448.797882
	C739.608398,425.072327 716.727295,395.685699 701.022034,360.618256
	C693.450745,343.712677 687.534302,326.162872 685.110657,307.736328
	C683.213806,293.315063 680.955811,278.723297 681.342896,264.273834
	C681.845154,245.523483 684.296326,226.820312 689.859497,208.615265
	C694.896667,192.131287 700.878357,176.100800 709.056458,160.960953
	C718.432129,143.604141 729.535217,127.504898 743.207581,113.087219
	C756.062927,99.531113 769.975952,87.291847 785.541016,77.140701
	C810.765869,60.689655 837.949768,48.959972 867.702881,42.716667
	C888.032043,38.450840 908.387390,38.314255 928.704407,39.322533
	C945.569824,40.159527 962.469971,43.201801 978.456726,49.222637
	C991.788757,54.243641 1004.827881,60.042110 1018.302307,65.730103
M977.285706,55.034897
	C971.265442,53.357239 965.334412,51.146446 959.205078,50.120384
	C948.642822,48.352253 937.988586,46.643181 927.315491,46.148472
	C913.179688,45.493267 898.835022,44.746521 884.865112,46.419353
	C871.250793,48.049610 857.944946,52.488144 844.596069,56.041035
	C829.298157,60.112667 815.187561,66.953606 801.456360,74.797745
	C785.451782,83.940544 770.575378,94.536926 757.291199,107.275589
	C742.033081,121.907234 729.088074,138.341919 718.547424,156.767517
	C709.168823,173.161743 701.297607,190.235748 696.217102,208.310516
	C690.566467,228.414093 686.814514,249.009399 688.019287,270.122345
	C688.655640,281.273285 688.654358,292.548553 690.434387,303.525513
	C693.055176,319.686981 696.998779,335.705566 704.110046,350.563232
	C711.163574,365.300385 718.132935,380.227112 726.868774,393.971375
	C737.350952,410.463257 750.698853,424.818298 765.839966,437.406677
	C779.542725,448.799133 793.918762,459.105896 809.946655,466.998505
	C827.577026,475.680176 845.767090,482.706360 865.234558,486.087860
	C876.048706,487.966309 886.765808,491.099884 897.643250,491.767242
	C917.997070,493.016052 938.311462,491.882721 958.333923,487.064301
	C984.313477,480.812286 1008.766418,471.019073 1031.077759,456.313141
	C1046.773071,445.968048 1061.084595,433.961731 1073.786377,419.922180
	C1085.512573,406.960907 1096.291870,393.348511 1104.883301,378.203094
	C1121.143799,349.538147 1131.442017,318.670471 1133.676758,285.792480
	C1134.835083,268.750061 1134.010132,251.288406 1131.607910,234.367279
	C1129.139404,216.979645 1124.028442,200.010117 1117.403198,183.459122
	C1107.397949,158.464020 1092.958008,136.462570 1074.990356,116.819077
	C1065.929321,106.912971 1055.738159,97.770164 1044.956177,89.766693
	C1024.625366,74.675186 1002.364136,62.887115 977.285706,55.034897
z"/>
    <path fill="#000000" opacity="1.000000" stroke="none"
          d="
M938.336060,376.243530
	C926.213745,385.578003 914.444885,394.769073 902.557373,403.804199
	C889.408447,413.797974 876.148193,423.645325 862.942261,433.564240
	C858.795959,436.678497 854.614380,439.749695 850.554688,442.973724
	C848.425476,444.664642 847.211975,444.248474 845.965149,441.943115
	C838.267517,427.710236 830.520569,413.503723 822.709290,399.332855
	C820.791321,395.853333 818.573120,392.539307 816.594666,389.314941
	C838.858704,372.669281 860.616455,356.410400 882.365112,340.139313
	C902.069885,325.397369 921.802185,310.691895 941.448608,295.872559
	C951.944580,287.955444 962.299927,279.851471 972.683411,271.786407
	C975.032104,269.962158 976.148132,268.537476 972.704956,265.999908
	C956.141113,253.792572 939.778381,241.309769 923.440613,228.798981
	C908.360352,217.251099 893.495728,205.420486 878.361023,193.945343
	C866.252930,184.764984 853.831543,175.998917 841.647583,166.917038
	C835.009583,161.969101 828.576294,156.746490 822.369690,151.897003
	C832.577881,132.843826 842.653687,114.037781 852.849976,95.006798
	C928.844604,152.425156 1005.048218,210.001373 1081.925415,268.086578
	C1074.735352,273.643005 1068.147217,278.860474 1061.427368,283.902283
	C1044.594971,296.531342 1027.673096,309.040894 1010.842102,321.671753
	C988.041077,338.782867 965.291504,355.962555 942.519714,373.112640
	C941.226379,374.086670 939.931396,375.058502 938.336060,376.243530
z"/>
</svg>